<mxfile host="app.diagrams.net" agent="Mozilla/5.0 (Windows NT 10.0; Win64; x64) AppleWebKit/537.36 (KHTML, like Gecko) Chrome/131.0.0.0 Safari/537.36" version="25.0.1">
  <diagram id="C5RBs43oDa-KdzZeNtuy" name="Page-1">
    <mxGraphModel dx="1750" dy="928" grid="1" gridSize="10" guides="1" tooltips="1" connect="1" arrows="1" fold="1" page="1" pageScale="1" pageWidth="827" pageHeight="1169" math="0" shadow="0">
      <root>
        <mxCell id="WIyWlLk6GJQsqaUBKTNV-0" />
        <mxCell id="WIyWlLk6GJQsqaUBKTNV-1" parent="WIyWlLk6GJQsqaUBKTNV-0" />
        <mxCell id="6_UgSWo_ZpVjv1NP7Cd4-14" value="Model" style="swimlane;fontStyle=1;align=center;verticalAlign=top;childLayout=stackLayout;horizontal=1;startSize=26;horizontalStack=0;resizeParent=1;resizeParentMax=0;resizeLast=0;collapsible=1;marginBottom=0;whiteSpace=wrap;html=1;" parent="WIyWlLk6GJQsqaUBKTNV-1" vertex="1">
          <mxGeometry x="1255" y="10" width="800" height="256" as="geometry" />
        </mxCell>
        <mxCell id="6_UgSWo_ZpVjv1NP7Cd4-123" value="&lt;li&gt;&lt;strong&gt;_meta&lt;/strong&gt;: &lt;code&gt;Options&lt;/code&gt;&lt;/li&gt;&lt;li&gt;&lt;strong&gt;objects&lt;/strong&gt;: &lt;code&gt;Manager&lt;/code&gt;&lt;/li&gt;" style="text;strokeColor=none;fillColor=none;align=left;verticalAlign=top;spacingLeft=4;spacingRight=4;overflow=hidden;rotatable=0;points=[[0,0.5],[1,0.5]];portConstraint=eastwest;whiteSpace=wrap;html=1;" parent="6_UgSWo_ZpVjv1NP7Cd4-14" vertex="1">
          <mxGeometry y="26" width="800" height="44" as="geometry" />
        </mxCell>
        <mxCell id="6_UgSWo_ZpVjv1NP7Cd4-16" value="" style="line;strokeWidth=1;fillColor=none;align=left;verticalAlign=middle;spacingTop=-1;spacingLeft=3;spacingRight=3;rotatable=0;labelPosition=right;points=[];portConstraint=eastwest;strokeColor=inherit;" parent="6_UgSWo_ZpVjv1NP7Cd4-14" vertex="1">
          <mxGeometry y="70" width="800" height="14" as="geometry" />
        </mxCell>
        <mxCell id="6_UgSWo_ZpVjv1NP7Cd4-124" value="&lt;li&gt;&lt;strong&gt;save(force_insert: bool = False, force_update: bool = False, using: str = None, update_fields: list = None)&lt;/strong&gt;: &lt;code&gt;None&lt;/code&gt;&lt;/li&gt;&lt;li&gt;&lt;strong&gt;delete(using: str = None, keep_parents: bool = False)&lt;/strong&gt;: &lt;code&gt;None&lt;/code&gt;&lt;/li&gt;&lt;li&gt;&lt;strong&gt;&lt;strong&gt;str&lt;/strong&gt;()&lt;/strong&gt;: &lt;code&gt;str&lt;/code&gt;&lt;/li&gt;&lt;li&gt;&lt;strong&gt;&lt;strong&gt;repr&lt;/strong&gt;()&lt;/strong&gt;: &lt;code&gt;str&lt;/code&gt;&lt;/li&gt;&lt;li&gt;&lt;strong&gt;get_absolute_url()&lt;/strong&gt;: &lt;code&gt;str&lt;/code&gt;&lt;/li&gt;&lt;li&gt;&lt;strong&gt;refresh_from_db(using: str = None, fields: list = None, **kwargs)&lt;/strong&gt;: &lt;code&gt;None&lt;/code&gt;&lt;/li&gt;&lt;li&gt;&lt;strong&gt;full_clean(exclude: list = None, validate_unique: bool = True, **kwargs)&lt;/strong&gt;: &lt;code&gt;None&lt;/code&gt;&lt;/li&gt;&lt;li&gt;&lt;strong&gt;save_base(raw: bool = False, force_insert: bool = False, force_update: bool = False, using: str = None, update_fields: list = None)&lt;/strong&gt;: &lt;code&gt;None&lt;/code&gt;&lt;/li&gt;&lt;li&gt;&lt;strong&gt;clean()&lt;/strong&gt;: &lt;code&gt;None&lt;/code&gt;&lt;/li&gt;&lt;li&gt;&lt;strong&gt;clean_fields(exclude: list = None)&lt;/strong&gt;: &lt;code&gt;None&lt;/code&gt;&lt;/li&gt;" style="text;strokeColor=none;fillColor=none;align=left;verticalAlign=top;spacingLeft=4;spacingRight=4;overflow=hidden;rotatable=0;points=[[0,0.5],[1,0.5]];portConstraint=eastwest;whiteSpace=wrap;html=1;" parent="6_UgSWo_ZpVjv1NP7Cd4-14" vertex="1">
          <mxGeometry y="84" width="800" height="172" as="geometry" />
        </mxCell>
        <mxCell id="6_UgSWo_ZpVjv1NP7Cd4-105" style="edgeStyle=orthogonalEdgeStyle;rounded=0;orthogonalLoop=1;jettySize=auto;html=1;exitX=0.5;exitY=0;exitDx=0;exitDy=0;entryX=0;entryY=0.25;entryDx=0;entryDy=0;endArrow=block;endFill=0;endSize=16;" parent="WIyWlLk6GJQsqaUBKTNV-1" source="6_UgSWo_ZpVjv1NP7Cd4-18" target="6_UgSWo_ZpVjv1NP7Cd4-14" edge="1">
          <mxGeometry relative="1" as="geometry">
            <mxPoint x="1220" y="230" as="targetPoint" />
          </mxGeometry>
        </mxCell>
        <mxCell id="6_UgSWo_ZpVjv1NP7Cd4-18" value="&lt;span style=&quot;font-size: 14px;&quot;&gt;Usuario&lt;/span&gt;" style="swimlane;fontStyle=1;align=center;verticalAlign=top;childLayout=stackLayout;horizontal=1;startSize=26;horizontalStack=0;resizeParent=1;resizeParentMax=0;resizeLast=0;collapsible=1;marginBottom=0;whiteSpace=wrap;html=1;" parent="WIyWlLk6GJQsqaUBKTNV-1" vertex="1">
          <mxGeometry x="870" y="440" width="340" height="144" as="geometry" />
        </mxCell>
        <mxCell id="6_UgSWo_ZpVjv1NP7Cd4-19" value="&lt;li&gt;&lt;strong&gt;user&lt;/strong&gt;: &lt;code&gt;ForeignKey&lt;/code&gt; (&lt;code&gt;User&lt;/code&gt;, &lt;code&gt;on_delete=models.CASCADE&lt;/code&gt;)&lt;/li&gt;&lt;li&gt;&lt;strong&gt;login_IHX&lt;/strong&gt;: &lt;code&gt;CharField&lt;/code&gt; (&lt;code&gt;max_length=30&lt;/code&gt;)&lt;/li&gt;&lt;li&gt;&lt;strong&gt;senha_IHX&lt;/strong&gt;: &lt;code&gt;CharField&lt;/code&gt; (&lt;code&gt;max_length=30&lt;/code&gt;)&lt;/li&gt;&lt;li&gt;&lt;strong&gt;login_CAF&lt;/strong&gt;: &lt;code&gt;CharField&lt;/code&gt; (&lt;code&gt;max_length=30&lt;/code&gt;)&lt;/li&gt;&lt;li&gt;&lt;strong&gt;senha_CAF&lt;/strong&gt;: &lt;code&gt;CharField&lt;/code&gt; (&lt;code&gt;max_length=30&lt;/code&gt;)&lt;/li&gt;" style="text;strokeColor=none;fillColor=none;align=left;verticalAlign=top;spacingLeft=4;spacingRight=4;overflow=hidden;rotatable=0;points=[[0,0.5],[1,0.5]];portConstraint=eastwest;whiteSpace=wrap;html=1;" parent="6_UgSWo_ZpVjv1NP7Cd4-18" vertex="1">
          <mxGeometry y="26" width="340" height="84" as="geometry" />
        </mxCell>
        <mxCell id="6_UgSWo_ZpVjv1NP7Cd4-20" value="" style="line;strokeWidth=1;fillColor=none;align=left;verticalAlign=middle;spacingTop=-1;spacingLeft=3;spacingRight=3;rotatable=0;labelPosition=right;points=[];portConstraint=eastwest;strokeColor=inherit;" parent="6_UgSWo_ZpVjv1NP7Cd4-18" vertex="1">
          <mxGeometry y="110" width="340" height="8" as="geometry" />
        </mxCell>
        <mxCell id="6_UgSWo_ZpVjv1NP7Cd4-21" value="&amp;nbsp; &amp;nbsp; &amp;nbsp;" style="text;strokeColor=none;fillColor=none;align=left;verticalAlign=top;spacingLeft=4;spacingRight=4;overflow=hidden;rotatable=0;points=[[0,0.5],[1,0.5]];portConstraint=eastwest;whiteSpace=wrap;html=1;" parent="6_UgSWo_ZpVjv1NP7Cd4-18" vertex="1">
          <mxGeometry y="118" width="340" height="26" as="geometry" />
        </mxCell>
        <mxCell id="6_UgSWo_ZpVjv1NP7Cd4-109" style="edgeStyle=orthogonalEdgeStyle;rounded=0;orthogonalLoop=1;jettySize=auto;html=1;entryX=0.25;entryY=1;entryDx=0;entryDy=0;endSize=16;endArrow=block;endFill=0;" parent="WIyWlLk6GJQsqaUBKTNV-1" source="6_UgSWo_ZpVjv1NP7Cd4-29" target="6_UgSWo_ZpVjv1NP7Cd4-14" edge="1">
          <mxGeometry relative="1" as="geometry" />
        </mxCell>
        <mxCell id="6_UgSWo_ZpVjv1NP7Cd4-29" value="Homepage" style="swimlane;fontStyle=1;align=center;verticalAlign=top;childLayout=stackLayout;horizontal=1;startSize=26;horizontalStack=0;resizeParent=1;resizeParentMax=0;resizeLast=0;collapsible=1;marginBottom=0;whiteSpace=wrap;html=1;" parent="WIyWlLk6GJQsqaUBKTNV-1" vertex="1">
          <mxGeometry x="1280" y="440" width="290" height="114" as="geometry" />
        </mxCell>
        <mxCell id="6_UgSWo_ZpVjv1NP7Cd4-30" value="&lt;li&gt;&lt;strong&gt;titulo&lt;/strong&gt;: &lt;code&gt;CharField&lt;/code&gt; (&lt;code&gt;max_length=55&lt;/code&gt;)&lt;/li&gt;&lt;li&gt;&lt;strong&gt;texto&lt;/strong&gt;: &lt;code&gt;CharField&lt;/code&gt; (&lt;code&gt;max_length=200&lt;/code&gt;)&lt;/li&gt;&lt;li&gt;&lt;strong&gt;imagem&lt;/strong&gt;: &lt;code&gt;ImageField&lt;/code&gt; (&lt;code&gt;upload_to=&quot;imgHome/&quot;&lt;/code&gt;)&lt;/li&gt;" style="text;strokeColor=none;fillColor=none;align=left;verticalAlign=top;spacingLeft=4;spacingRight=4;overflow=hidden;rotatable=0;points=[[0,0.5],[1,0.5]];portConstraint=eastwest;whiteSpace=wrap;html=1;" parent="6_UgSWo_ZpVjv1NP7Cd4-29" vertex="1">
          <mxGeometry y="26" width="290" height="54" as="geometry" />
        </mxCell>
        <mxCell id="6_UgSWo_ZpVjv1NP7Cd4-31" value="" style="line;strokeWidth=1;fillColor=none;align=left;verticalAlign=middle;spacingTop=-1;spacingLeft=3;spacingRight=3;rotatable=0;labelPosition=right;points=[];portConstraint=eastwest;strokeColor=inherit;" parent="6_UgSWo_ZpVjv1NP7Cd4-29" vertex="1">
          <mxGeometry y="80" width="290" height="8" as="geometry" />
        </mxCell>
        <mxCell id="6_UgSWo_ZpVjv1NP7Cd4-32" value="&amp;nbsp; &amp;nbsp;&amp;nbsp;" style="text;strokeColor=none;fillColor=none;align=left;verticalAlign=top;spacingLeft=4;spacingRight=4;overflow=hidden;rotatable=0;points=[[0,0.5],[1,0.5]];portConstraint=eastwest;whiteSpace=wrap;html=1;" parent="6_UgSWo_ZpVjv1NP7Cd4-29" vertex="1">
          <mxGeometry y="88" width="290" height="26" as="geometry" />
        </mxCell>
        <mxCell id="6_UgSWo_ZpVjv1NP7Cd4-111" style="edgeStyle=orthogonalEdgeStyle;rounded=0;orthogonalLoop=1;jettySize=auto;html=1;entryX=0.75;entryY=1;entryDx=0;entryDy=0;endArrow=block;endFill=0;endSize=16;" parent="WIyWlLk6GJQsqaUBKTNV-1" source="6_UgSWo_ZpVjv1NP7Cd4-42" target="6_UgSWo_ZpVjv1NP7Cd4-14" edge="1">
          <mxGeometry relative="1" as="geometry" />
        </mxCell>
        <mxCell id="6_UgSWo_ZpVjv1NP7Cd4-42" value="Login" style="swimlane;fontStyle=1;align=center;verticalAlign=top;childLayout=stackLayout;horizontal=1;startSize=26;horizontalStack=0;resizeParent=1;resizeParentMax=0;resizeLast=0;collapsible=1;marginBottom=0;whiteSpace=wrap;html=1;" parent="WIyWlLk6GJQsqaUBKTNV-1" vertex="1">
          <mxGeometry x="1640" y="440" width="310" height="94" as="geometry" />
        </mxCell>
        <mxCell id="6_UgSWo_ZpVjv1NP7Cd4-43" value="&lt;li&gt;&lt;strong&gt;titulo&lt;/strong&gt;: &lt;code&gt;CharField&lt;/code&gt; (&lt;code&gt;max_length=55&lt;/code&gt;)&lt;/li&gt;&lt;li&gt;&lt;strong&gt;imgLogin&lt;/strong&gt;: &lt;code&gt;ImageField&lt;/code&gt; (&lt;code&gt;upload_to=&quot;imgLogin/&quot;&lt;/code&gt;)&lt;/li&gt;" style="text;strokeColor=none;fillColor=none;align=left;verticalAlign=top;spacingLeft=4;spacingRight=4;overflow=hidden;rotatable=0;points=[[0,0.5],[1,0.5]];portConstraint=eastwest;whiteSpace=wrap;html=1;" parent="6_UgSWo_ZpVjv1NP7Cd4-42" vertex="1">
          <mxGeometry y="26" width="310" height="34" as="geometry" />
        </mxCell>
        <mxCell id="6_UgSWo_ZpVjv1NP7Cd4-44" value="" style="line;strokeWidth=1;fillColor=none;align=left;verticalAlign=middle;spacingTop=-1;spacingLeft=3;spacingRight=3;rotatable=0;labelPosition=right;points=[];portConstraint=eastwest;strokeColor=inherit;" parent="6_UgSWo_ZpVjv1NP7Cd4-42" vertex="1">
          <mxGeometry y="60" width="310" height="8" as="geometry" />
        </mxCell>
        <mxCell id="6_UgSWo_ZpVjv1NP7Cd4-45" value="&amp;nbsp; &amp;nbsp;&amp;nbsp;" style="text;strokeColor=none;fillColor=none;align=left;verticalAlign=top;spacingLeft=4;spacingRight=4;overflow=hidden;rotatable=0;points=[[0,0.5],[1,0.5]];portConstraint=eastwest;whiteSpace=wrap;html=1;" parent="6_UgSWo_ZpVjv1NP7Cd4-42" vertex="1">
          <mxGeometry y="68" width="310" height="26" as="geometry" />
        </mxCell>
        <mxCell id="6_UgSWo_ZpVjv1NP7Cd4-119" style="edgeStyle=orthogonalEdgeStyle;rounded=0;orthogonalLoop=1;jettySize=auto;html=1;entryX=1;entryY=0.25;entryDx=0;entryDy=0;endArrow=block;endFill=0;endSize=16;" parent="WIyWlLk6GJQsqaUBKTNV-1" source="6_UgSWo_ZpVjv1NP7Cd4-46" target="6_UgSWo_ZpVjv1NP7Cd4-14" edge="1">
          <mxGeometry relative="1" as="geometry" />
        </mxCell>
        <mxCell id="6_UgSWo_ZpVjv1NP7Cd4-46" value="NovaTurma" style="swimlane;fontStyle=1;align=center;verticalAlign=top;childLayout=stackLayout;horizontal=1;startSize=26;horizontalStack=0;resizeParent=1;resizeParentMax=0;resizeLast=0;collapsible=1;marginBottom=0;whiteSpace=wrap;html=1;" parent="WIyWlLk6GJQsqaUBKTNV-1" vertex="1">
          <mxGeometry x="2010" y="440" width="370" height="114" as="geometry" />
        </mxCell>
        <mxCell id="6_UgSWo_ZpVjv1NP7Cd4-47" value="&lt;li&gt;&lt;strong&gt;titulo&lt;/strong&gt;: &lt;code&gt;CharField&lt;/code&gt; (&lt;code&gt;max_length=55&lt;/code&gt;)&lt;/li&gt;&lt;li&gt;&lt;strong&gt;texto&lt;/strong&gt;: &lt;code&gt;CharField&lt;/code&gt; (&lt;code&gt;max_length=100&lt;/code&gt;)&lt;/li&gt;&lt;li&gt;&lt;strong&gt;imgNovaTurma&lt;/strong&gt;: &lt;code&gt;ImageField&lt;/code&gt; (&lt;code&gt;upload_to=&quot;imgNovaTurma/&quot;&lt;/code&gt;)&lt;/li&gt;" style="text;strokeColor=none;fillColor=none;align=left;verticalAlign=top;spacingLeft=4;spacingRight=4;overflow=hidden;rotatable=0;points=[[0,0.5],[1,0.5]];portConstraint=eastwest;whiteSpace=wrap;html=1;" parent="6_UgSWo_ZpVjv1NP7Cd4-46" vertex="1">
          <mxGeometry y="26" width="370" height="54" as="geometry" />
        </mxCell>
        <mxCell id="6_UgSWo_ZpVjv1NP7Cd4-48" value="" style="line;strokeWidth=1;fillColor=none;align=left;verticalAlign=middle;spacingTop=-1;spacingLeft=3;spacingRight=3;rotatable=0;labelPosition=right;points=[];portConstraint=eastwest;strokeColor=inherit;" parent="6_UgSWo_ZpVjv1NP7Cd4-46" vertex="1">
          <mxGeometry y="80" width="370" height="8" as="geometry" />
        </mxCell>
        <mxCell id="6_UgSWo_ZpVjv1NP7Cd4-49" value="&amp;nbsp; &amp;nbsp; &amp;nbsp;" style="text;strokeColor=none;fillColor=none;align=left;verticalAlign=top;spacingLeft=4;spacingRight=4;overflow=hidden;rotatable=0;points=[[0,0.5],[1,0.5]];portConstraint=eastwest;whiteSpace=wrap;html=1;" parent="6_UgSWo_ZpVjv1NP7Cd4-46" vertex="1">
          <mxGeometry y="88" width="370" height="26" as="geometry" />
        </mxCell>
        <mxCell id="6_UgSWo_ZpVjv1NP7Cd4-106" style="edgeStyle=orthogonalEdgeStyle;rounded=0;orthogonalLoop=1;jettySize=auto;html=1;entryX=0;entryY=0.5;entryDx=0;entryDy=0;exitX=0.5;exitY=0;exitDx=0;exitDy=0;endSize=16;endArrow=block;endFill=0;" parent="WIyWlLk6GJQsqaUBKTNV-1" source="6_UgSWo_ZpVjv1NP7Cd4-51" target="6_UgSWo_ZpVjv1NP7Cd4-14" edge="1">
          <mxGeometry relative="1" as="geometry">
            <Array as="points">
              <mxPoint x="1040" y="620" />
              <mxPoint x="1220" y="620" />
              <mxPoint x="1220" y="138" />
            </Array>
          </mxGeometry>
        </mxCell>
        <mxCell id="6_UgSWo_ZpVjv1NP7Cd4-51" value="Cadastro" style="swimlane;fontStyle=1;align=center;verticalAlign=top;childLayout=stackLayout;horizontal=1;startSize=26;horizontalStack=0;resizeParent=1;resizeParentMax=0;resizeLast=0;collapsible=1;marginBottom=0;whiteSpace=wrap;html=1;" parent="WIyWlLk6GJQsqaUBKTNV-1" vertex="1">
          <mxGeometry x="865" y="638" width="350" height="104" as="geometry" />
        </mxCell>
        <mxCell id="6_UgSWo_ZpVjv1NP7Cd4-52" value="&lt;li&gt;&lt;strong&gt;titulo&lt;/strong&gt;: &lt;code&gt;CharField&lt;/code&gt; (&lt;code&gt;max_length=55&lt;/code&gt;)&lt;/li&gt;&lt;li&gt;&lt;strong&gt;imgCadastro&lt;/strong&gt;: &lt;code&gt;ImageField&lt;/code&gt; (&lt;code&gt;upload_to=&quot;imgCadastro/&quot;&lt;/code&gt;)&lt;/li&gt;" style="text;strokeColor=none;fillColor=none;align=left;verticalAlign=top;spacingLeft=4;spacingRight=4;overflow=hidden;rotatable=0;points=[[0,0.5],[1,0.5]];portConstraint=eastwest;whiteSpace=wrap;html=1;" parent="6_UgSWo_ZpVjv1NP7Cd4-51" vertex="1">
          <mxGeometry y="26" width="350" height="44" as="geometry" />
        </mxCell>
        <mxCell id="6_UgSWo_ZpVjv1NP7Cd4-53" value="" style="line;strokeWidth=1;fillColor=none;align=left;verticalAlign=middle;spacingTop=-1;spacingLeft=3;spacingRight=3;rotatable=0;labelPosition=right;points=[];portConstraint=eastwest;strokeColor=inherit;" parent="6_UgSWo_ZpVjv1NP7Cd4-51" vertex="1">
          <mxGeometry y="70" width="350" height="8" as="geometry" />
        </mxCell>
        <mxCell id="6_UgSWo_ZpVjv1NP7Cd4-54" value="&amp;nbsp; &amp;nbsp;" style="text;strokeColor=none;fillColor=none;align=left;verticalAlign=top;spacingLeft=4;spacingRight=4;overflow=hidden;rotatable=0;points=[[0,0.5],[1,0.5]];portConstraint=eastwest;whiteSpace=wrap;html=1;" parent="6_UgSWo_ZpVjv1NP7Cd4-51" vertex="1">
          <mxGeometry y="78" width="350" height="26" as="geometry" />
        </mxCell>
        <mxCell id="6_UgSWo_ZpVjv1NP7Cd4-110" style="edgeStyle=orthogonalEdgeStyle;rounded=0;orthogonalLoop=1;jettySize=auto;html=1;entryX=0;entryY=1;entryDx=0;entryDy=0;endSize=16;endArrow=block;endFill=0;" parent="WIyWlLk6GJQsqaUBKTNV-1" source="6_UgSWo_ZpVjv1NP7Cd4-55" target="6_UgSWo_ZpVjv1NP7Cd4-14" edge="1">
          <mxGeometry relative="1" as="geometry">
            <Array as="points">
              <mxPoint x="1395" y="580" />
              <mxPoint x="1255" y="580" />
            </Array>
          </mxGeometry>
        </mxCell>
        <mxCell id="6_UgSWo_ZpVjv1NP7Cd4-55" value="Storage" style="swimlane;fontStyle=1;align=center;verticalAlign=top;childLayout=stackLayout;horizontal=1;startSize=26;horizontalStack=0;resizeParent=1;resizeParentMax=0;resizeLast=0;collapsible=1;marginBottom=0;whiteSpace=wrap;html=1;" parent="WIyWlLk6GJQsqaUBKTNV-1" vertex="1">
          <mxGeometry x="1290" y="638" width="210" height="86" as="geometry" />
        </mxCell>
        <mxCell id="6_UgSWo_ZpVjv1NP7Cd4-56" value="&lt;strong&gt;titulo&lt;/strong&gt;: &lt;code&gt;CharField&lt;/code&gt; (&lt;code&gt;max_length=55)&lt;/code&gt;" style="text;strokeColor=none;fillColor=none;align=left;verticalAlign=top;spacingLeft=4;spacingRight=4;overflow=hidden;rotatable=0;points=[[0,0.5],[1,0.5]];portConstraint=eastwest;whiteSpace=wrap;html=1;" parent="6_UgSWo_ZpVjv1NP7Cd4-55" vertex="1">
          <mxGeometry y="26" width="210" height="26" as="geometry" />
        </mxCell>
        <mxCell id="6_UgSWo_ZpVjv1NP7Cd4-57" value="" style="line;strokeWidth=1;fillColor=none;align=left;verticalAlign=middle;spacingTop=-1;spacingLeft=3;spacingRight=3;rotatable=0;labelPosition=right;points=[];portConstraint=eastwest;strokeColor=inherit;" parent="6_UgSWo_ZpVjv1NP7Cd4-55" vertex="1">
          <mxGeometry y="52" width="210" height="8" as="geometry" />
        </mxCell>
        <mxCell id="6_UgSWo_ZpVjv1NP7Cd4-58" value="&amp;nbsp; &amp;nbsp;&amp;nbsp;" style="text;strokeColor=none;fillColor=none;align=left;verticalAlign=top;spacingLeft=4;spacingRight=4;overflow=hidden;rotatable=0;points=[[0,0.5],[1,0.5]];portConstraint=eastwest;whiteSpace=wrap;html=1;" parent="6_UgSWo_ZpVjv1NP7Cd4-55" vertex="1">
          <mxGeometry y="60" width="210" height="26" as="geometry" />
        </mxCell>
        <mxCell id="6_UgSWo_ZpVjv1NP7Cd4-116" style="edgeStyle=orthogonalEdgeStyle;rounded=0;orthogonalLoop=1;jettySize=auto;html=1;entryX=1;entryY=1;entryDx=0;entryDy=0;endSize=16;endArrow=block;endFill=0;" parent="WIyWlLk6GJQsqaUBKTNV-1" source="6_UgSWo_ZpVjv1NP7Cd4-59" target="6_UgSWo_ZpVjv1NP7Cd4-14" edge="1">
          <mxGeometry relative="1" as="geometry">
            <Array as="points">
              <mxPoint x="1745" y="580" />
              <mxPoint x="1990" y="580" />
              <mxPoint x="1990" y="383" />
              <mxPoint x="2055" y="383" />
            </Array>
          </mxGeometry>
        </mxCell>
        <mxCell id="6_UgSWo_ZpVjv1NP7Cd4-59" value="Processo" style="swimlane;fontStyle=1;align=center;verticalAlign=top;childLayout=stackLayout;horizontal=1;startSize=26;horizontalStack=0;resizeParent=1;resizeParentMax=0;resizeLast=0;collapsible=1;marginBottom=0;whiteSpace=wrap;html=1;" parent="WIyWlLk6GJQsqaUBKTNV-1" vertex="1">
          <mxGeometry x="1640" y="632" width="210" height="86" as="geometry" />
        </mxCell>
        <mxCell id="6_UgSWo_ZpVjv1NP7Cd4-60" value="&lt;strong&gt;titulo&lt;/strong&gt;: &lt;code&gt;CharField&lt;/code&gt; (&lt;code&gt;max_length=55&lt;/code&gt;)" style="text;strokeColor=none;fillColor=none;align=left;verticalAlign=top;spacingLeft=4;spacingRight=4;overflow=hidden;rotatable=0;points=[[0,0.5],[1,0.5]];portConstraint=eastwest;whiteSpace=wrap;html=1;" parent="6_UgSWo_ZpVjv1NP7Cd4-59" vertex="1">
          <mxGeometry y="26" width="210" height="26" as="geometry" />
        </mxCell>
        <mxCell id="6_UgSWo_ZpVjv1NP7Cd4-61" value="" style="line;strokeWidth=1;fillColor=none;align=left;verticalAlign=middle;spacingTop=-1;spacingLeft=3;spacingRight=3;rotatable=0;labelPosition=right;points=[];portConstraint=eastwest;strokeColor=inherit;" parent="6_UgSWo_ZpVjv1NP7Cd4-59" vertex="1">
          <mxGeometry y="52" width="210" height="8" as="geometry" />
        </mxCell>
        <mxCell id="6_UgSWo_ZpVjv1NP7Cd4-62" value="&amp;nbsp; &amp;nbsp;" style="text;strokeColor=none;fillColor=none;align=left;verticalAlign=top;spacingLeft=4;spacingRight=4;overflow=hidden;rotatable=0;points=[[0,0.5],[1,0.5]];portConstraint=eastwest;whiteSpace=wrap;html=1;" parent="6_UgSWo_ZpVjv1NP7Cd4-59" vertex="1">
          <mxGeometry y="60" width="210" height="26" as="geometry" />
        </mxCell>
        <mxCell id="6_UgSWo_ZpVjv1NP7Cd4-120" style="edgeStyle=orthogonalEdgeStyle;rounded=0;orthogonalLoop=1;jettySize=auto;html=1;exitX=0.5;exitY=0;exitDx=0;exitDy=0;entryX=1;entryY=0.5;entryDx=0;entryDy=0;endSize=16;endArrow=block;endFill=0;" parent="WIyWlLk6GJQsqaUBKTNV-1" source="6_UgSWo_ZpVjv1NP7Cd4-63" target="6_UgSWo_ZpVjv1NP7Cd4-14" edge="1">
          <mxGeometry relative="1" as="geometry">
            <Array as="points">
              <mxPoint x="2215" y="600" />
              <mxPoint x="2400" y="600" />
              <mxPoint x="2400" y="138" />
            </Array>
          </mxGeometry>
        </mxCell>
        <mxCell id="6_UgSWo_ZpVjv1NP7Cd4-63" value="In_progress_file" style="swimlane;fontStyle=1;align=center;verticalAlign=top;childLayout=stackLayout;horizontal=1;startSize=26;horizontalStack=0;resizeParent=1;resizeParentMax=0;resizeLast=0;collapsible=1;marginBottom=0;whiteSpace=wrap;html=1;" parent="WIyWlLk6GJQsqaUBKTNV-1" vertex="1">
          <mxGeometry x="1970" y="623" width="490" height="134" as="geometry" />
        </mxCell>
        <mxCell id="6_UgSWo_ZpVjv1NP7Cd4-64" value="&lt;li&gt;&lt;strong&gt;turma&lt;/strong&gt;: &lt;code&gt;CharField&lt;/code&gt; (&lt;code&gt;max_length=20&lt;/code&gt;)&lt;/li&gt;&lt;li&gt;&lt;strong&gt;arquivo_inprogress&lt;/strong&gt;: &lt;code&gt;FileField&lt;/code&gt; (&lt;code&gt;upload_to=&#39;in_progress_files/&#39;&lt;/code&gt;)&lt;/li&gt;&lt;li&gt;&lt;strong&gt;status&lt;/strong&gt;: &lt;code&gt;CharField&lt;/code&gt; (&lt;code&gt;max_length=15&lt;/code&gt;, &lt;code&gt;choices=STATUS_CHOICES&lt;/code&gt;, &lt;code&gt;default=PENDING&lt;/code&gt;)&lt;/li&gt;&lt;li&gt;&lt;strong&gt;upload_time&lt;/strong&gt;: &lt;code&gt;DateTimeField&lt;/code&gt; (&lt;code&gt;auto_now_add=True&lt;/code&gt;)&lt;/li&gt;" style="text;strokeColor=none;fillColor=none;align=left;verticalAlign=top;spacingLeft=4;spacingRight=4;overflow=hidden;rotatable=0;points=[[0,0.5],[1,0.5]];portConstraint=eastwest;whiteSpace=wrap;html=1;" parent="6_UgSWo_ZpVjv1NP7Cd4-63" vertex="1">
          <mxGeometry y="26" width="490" height="74" as="geometry" />
        </mxCell>
        <mxCell id="6_UgSWo_ZpVjv1NP7Cd4-65" value="" style="line;strokeWidth=1;fillColor=none;align=left;verticalAlign=middle;spacingTop=-1;spacingLeft=3;spacingRight=3;rotatable=0;labelPosition=right;points=[];portConstraint=eastwest;strokeColor=inherit;" parent="6_UgSWo_ZpVjv1NP7Cd4-63" vertex="1">
          <mxGeometry y="100" width="490" height="8" as="geometry" />
        </mxCell>
        <mxCell id="6_UgSWo_ZpVjv1NP7Cd4-66" value="&amp;nbsp; &amp;nbsp;&amp;nbsp;" style="text;strokeColor=none;fillColor=none;align=left;verticalAlign=top;spacingLeft=4;spacingRight=4;overflow=hidden;rotatable=0;points=[[0,0.5],[1,0.5]];portConstraint=eastwest;whiteSpace=wrap;html=1;" parent="6_UgSWo_ZpVjv1NP7Cd4-63" vertex="1">
          <mxGeometry y="108" width="490" height="26" as="geometry" />
        </mxCell>
        <mxCell id="6_UgSWo_ZpVjv1NP7Cd4-107" style="edgeStyle=orthogonalEdgeStyle;rounded=0;orthogonalLoop=1;jettySize=auto;html=1;entryX=0;entryY=0.75;entryDx=0;entryDy=0;exitX=0.5;exitY=0;exitDx=0;exitDy=0;endSize=16;endArrow=block;endFill=0;" parent="WIyWlLk6GJQsqaUBKTNV-1" source="6_UgSWo_ZpVjv1NP7Cd4-71" target="6_UgSWo_ZpVjv1NP7Cd4-14" edge="1">
          <mxGeometry relative="1" as="geometry">
            <Array as="points">
              <mxPoint x="1060" y="770" />
              <mxPoint x="840" y="770" />
              <mxPoint x="840" y="202" />
            </Array>
          </mxGeometry>
        </mxCell>
        <mxCell id="6_UgSWo_ZpVjv1NP7Cd4-71" value="Finished_file" style="swimlane;fontStyle=1;align=center;verticalAlign=top;childLayout=stackLayout;horizontal=1;startSize=26;horizontalStack=0;resizeParent=1;resizeParentMax=0;resizeLast=0;collapsible=1;marginBottom=0;whiteSpace=wrap;html=1;" parent="WIyWlLk6GJQsqaUBKTNV-1" vertex="1">
          <mxGeometry x="865" y="804" width="390" height="114" as="geometry" />
        </mxCell>
        <mxCell id="6_UgSWo_ZpVjv1NP7Cd4-72" value="&lt;li&gt;&lt;strong&gt;turma&lt;/strong&gt;: &lt;code&gt;CharField&lt;/code&gt; (&lt;code&gt;max_length=20&lt;/code&gt;)&lt;/li&gt;&lt;li&gt;&lt;strong&gt;arquivo_fineshed&lt;/strong&gt;: &lt;code&gt;FileField&lt;/code&gt; (&lt;code&gt;upload_to=&#39;finished_files/&#39;&lt;/code&gt;)&lt;/li&gt;&lt;li&gt;&lt;strong style=&quot;background-color: initial;&quot;&gt;upload_time&lt;/strong&gt;&lt;span style=&quot;background-color: initial;&quot;&gt;: &lt;/span&gt;&lt;code style=&quot;background-color: initial;&quot;&gt;DateTimeField&lt;/code&gt;&lt;span style=&quot;background-color: initial;&quot;&gt; (&lt;/span&gt;&lt;code style=&quot;background-color: initial;&quot;&gt;auto_now_add=True&lt;/code&gt;&lt;span style=&quot;background-color: initial;&quot;&gt;)&lt;/span&gt;&lt;/li&gt;" style="text;strokeColor=none;fillColor=none;align=left;verticalAlign=top;spacingLeft=4;spacingRight=4;overflow=hidden;rotatable=0;points=[[0,0.5],[1,0.5]];portConstraint=eastwest;whiteSpace=wrap;html=1;" parent="6_UgSWo_ZpVjv1NP7Cd4-71" vertex="1">
          <mxGeometry y="26" width="390" height="54" as="geometry" />
        </mxCell>
        <mxCell id="6_UgSWo_ZpVjv1NP7Cd4-73" value="" style="line;strokeWidth=1;fillColor=none;align=left;verticalAlign=middle;spacingTop=-1;spacingLeft=3;spacingRight=3;rotatable=0;labelPosition=right;points=[];portConstraint=eastwest;strokeColor=inherit;" parent="6_UgSWo_ZpVjv1NP7Cd4-71" vertex="1">
          <mxGeometry y="80" width="390" height="8" as="geometry" />
        </mxCell>
        <mxCell id="6_UgSWo_ZpVjv1NP7Cd4-74" value="&amp;nbsp; &amp;nbsp;" style="text;strokeColor=none;fillColor=none;align=left;verticalAlign=top;spacingLeft=4;spacingRight=4;overflow=hidden;rotatable=0;points=[[0,0.5],[1,0.5]];portConstraint=eastwest;whiteSpace=wrap;html=1;" parent="6_UgSWo_ZpVjv1NP7Cd4-71" vertex="1">
          <mxGeometry y="88" width="390" height="26" as="geometry" />
        </mxCell>
        <mxCell id="6_UgSWo_ZpVjv1NP7Cd4-115" style="edgeStyle=orthogonalEdgeStyle;rounded=0;orthogonalLoop=1;jettySize=auto;html=1;exitX=0.5;exitY=0;exitDx=0;exitDy=0;entryX=0.5;entryY=1;entryDx=0;entryDy=0;endSize=16;endArrow=block;endFill=0;" parent="WIyWlLk6GJQsqaUBKTNV-1" target="6_UgSWo_ZpVjv1NP7Cd4-14" edge="1">
          <mxGeometry relative="1" as="geometry">
            <mxPoint x="1660" y="150" as="targetPoint" />
            <mxPoint x="1510" y="814" as="sourcePoint" />
            <Array as="points">
              <mxPoint x="1510" y="770" />
              <mxPoint x="1590" y="770" />
              <mxPoint x="1590" y="300" />
              <mxPoint x="1655" y="300" />
            </Array>
          </mxGeometry>
        </mxCell>
        <mxCell id="6_UgSWo_ZpVjv1NP7Cd4-75" value="Funcionario" style="swimlane;fontStyle=1;align=center;verticalAlign=top;childLayout=stackLayout;horizontal=1;startSize=26;horizontalStack=0;resizeParent=1;resizeParentMax=0;resizeLast=0;collapsible=1;marginBottom=0;whiteSpace=wrap;html=1;" parent="WIyWlLk6GJQsqaUBKTNV-1" vertex="1">
          <mxGeometry x="1290" y="804" width="400" height="104" as="geometry" />
        </mxCell>
        <mxCell id="6_UgSWo_ZpVjv1NP7Cd4-76" value="&lt;li&gt;&lt;strong&gt;titulo&lt;/strong&gt;: &lt;code&gt;CharField&lt;/code&gt; (&lt;code&gt;max_length=55&lt;/code&gt;)&lt;/li&gt;&lt;li&gt;&lt;strong&gt;imgFuncionarios&lt;/strong&gt;: &lt;code&gt;ImageField&lt;/code&gt; (&lt;code&gt;upload_to=&quot;imgFuncionarios/&quot;&lt;/code&gt;)&lt;/li&gt;" style="text;strokeColor=none;fillColor=none;align=left;verticalAlign=top;spacingLeft=4;spacingRight=4;overflow=hidden;rotatable=0;points=[[0,0.5],[1,0.5]];portConstraint=eastwest;whiteSpace=wrap;html=1;" parent="6_UgSWo_ZpVjv1NP7Cd4-75" vertex="1">
          <mxGeometry y="26" width="400" height="44" as="geometry" />
        </mxCell>
        <mxCell id="6_UgSWo_ZpVjv1NP7Cd4-77" value="" style="line;strokeWidth=1;fillColor=none;align=left;verticalAlign=middle;spacingTop=-1;spacingLeft=3;spacingRight=3;rotatable=0;labelPosition=right;points=[];portConstraint=eastwest;strokeColor=inherit;" parent="6_UgSWo_ZpVjv1NP7Cd4-75" vertex="1">
          <mxGeometry y="70" width="400" height="8" as="geometry" />
        </mxCell>
        <mxCell id="6_UgSWo_ZpVjv1NP7Cd4-78" value="&amp;nbsp; &amp;nbsp;" style="text;strokeColor=none;fillColor=none;align=left;verticalAlign=top;spacingLeft=4;spacingRight=4;overflow=hidden;rotatable=0;points=[[0,0.5],[1,0.5]];portConstraint=eastwest;whiteSpace=wrap;html=1;" parent="6_UgSWo_ZpVjv1NP7Cd4-75" vertex="1">
          <mxGeometry y="78" width="400" height="26" as="geometry" />
        </mxCell>
        <mxCell id="6_UgSWo_ZpVjv1NP7Cd4-117" style="edgeStyle=orthogonalEdgeStyle;rounded=0;orthogonalLoop=1;jettySize=auto;html=1;entryX=0.75;entryY=1;entryDx=0;entryDy=0;exitX=0.5;exitY=0;exitDx=0;exitDy=0;endSize=16;endArrow=block;endFill=0;" parent="WIyWlLk6GJQsqaUBKTNV-1" source="6_UgSWo_ZpVjv1NP7Cd4-85" target="6_UgSWo_ZpVjv1NP7Cd4-14" edge="1">
          <mxGeometry relative="1" as="geometry">
            <mxPoint x="1820" y="110" as="targetPoint" />
            <Array as="points">
              <mxPoint x="1905" y="760" />
              <mxPoint x="1960" y="760" />
              <mxPoint x="1960" y="330" />
              <mxPoint x="1855" y="330" />
            </Array>
          </mxGeometry>
        </mxCell>
        <mxCell id="6_UgSWo_ZpVjv1NP7Cd4-85" value="Perfil" style="swimlane;fontStyle=1;align=center;verticalAlign=top;childLayout=stackLayout;horizontal=1;startSize=26;horizontalStack=0;resizeParent=1;resizeParentMax=0;resizeLast=0;collapsible=1;marginBottom=0;whiteSpace=wrap;html=1;" parent="WIyWlLk6GJQsqaUBKTNV-1" vertex="1">
          <mxGeometry x="1750" y="802" width="310" height="104" as="geometry" />
        </mxCell>
        <mxCell id="6_UgSWo_ZpVjv1NP7Cd4-86" value="&lt;li&gt;&lt;strong&gt;titulo&lt;/strong&gt;: &lt;code&gt;CharField&lt;/code&gt; (&lt;code&gt;max_length=55&lt;/code&gt;)&lt;/li&gt;&lt;li&gt;&lt;strong&gt;imgPerfil&lt;/strong&gt;: &lt;code&gt;ImageField&lt;/code&gt; (&lt;code&gt;upload_to=&quot;imgPerfil/&quot;&lt;/code&gt;)&lt;/li&gt;" style="text;strokeColor=none;fillColor=none;align=left;verticalAlign=top;spacingLeft=4;spacingRight=4;overflow=hidden;rotatable=0;points=[[0,0.5],[1,0.5]];portConstraint=eastwest;whiteSpace=wrap;html=1;" parent="6_UgSWo_ZpVjv1NP7Cd4-85" vertex="1">
          <mxGeometry y="26" width="310" height="44" as="geometry" />
        </mxCell>
        <mxCell id="6_UgSWo_ZpVjv1NP7Cd4-87" value="" style="line;strokeWidth=1;fillColor=none;align=left;verticalAlign=middle;spacingTop=-1;spacingLeft=3;spacingRight=3;rotatable=0;labelPosition=right;points=[];portConstraint=eastwest;strokeColor=inherit;" parent="6_UgSWo_ZpVjv1NP7Cd4-85" vertex="1">
          <mxGeometry y="70" width="310" height="8" as="geometry" />
        </mxCell>
        <mxCell id="6_UgSWo_ZpVjv1NP7Cd4-88" value="&amp;nbsp; &amp;nbsp;&amp;nbsp;" style="text;strokeColor=none;fillColor=none;align=left;verticalAlign=top;spacingLeft=4;spacingRight=4;overflow=hidden;rotatable=0;points=[[0,0.5],[1,0.5]];portConstraint=eastwest;whiteSpace=wrap;html=1;" parent="6_UgSWo_ZpVjv1NP7Cd4-85" vertex="1">
          <mxGeometry y="78" width="310" height="26" as="geometry" />
        </mxCell>
        <mxCell id="6_UgSWo_ZpVjv1NP7Cd4-122" style="edgeStyle=orthogonalEdgeStyle;rounded=0;orthogonalLoop=1;jettySize=auto;html=1;entryX=1;entryY=0.75;entryDx=0;entryDy=0;endSize=16;endArrow=block;endFill=0;" parent="WIyWlLk6GJQsqaUBKTNV-1" source="6_UgSWo_ZpVjv1NP7Cd4-89" target="6_UgSWo_ZpVjv1NP7Cd4-14" edge="1">
          <mxGeometry relative="1" as="geometry">
            <Array as="points">
              <mxPoint x="2280" y="780" />
              <mxPoint x="2470" y="780" />
              <mxPoint x="2470" y="202" />
            </Array>
          </mxGeometry>
        </mxCell>
        <mxCell id="6_UgSWo_ZpVjv1NP7Cd4-89" value="PerfilEditar" style="swimlane;fontStyle=1;align=center;verticalAlign=top;childLayout=stackLayout;horizontal=1;startSize=26;horizontalStack=0;resizeParent=1;resizeParentMax=0;resizeLast=0;collapsible=1;marginBottom=0;whiteSpace=wrap;html=1;" parent="WIyWlLk6GJQsqaUBKTNV-1" vertex="1">
          <mxGeometry x="2100" y="802" width="360" height="104" as="geometry" />
        </mxCell>
        <mxCell id="6_UgSWo_ZpVjv1NP7Cd4-90" value="&lt;li&gt;&lt;strong&gt;titulo&lt;/strong&gt;: &lt;code&gt;CharField&lt;/code&gt; (&lt;code&gt;max_length=55&lt;/code&gt;)&lt;/li&gt;&lt;li&gt;&lt;strong&gt;imgPerfil&lt;/strong&gt;: &lt;code&gt;ImageField&lt;/code&gt; (&lt;code&gt;upload_to=&quot;imgPerfilEditar/&quot;&lt;/code&gt;)&lt;/li&gt;" style="text;strokeColor=none;fillColor=none;align=left;verticalAlign=top;spacingLeft=4;spacingRight=4;overflow=hidden;rotatable=0;points=[[0,0.5],[1,0.5]];portConstraint=eastwest;whiteSpace=wrap;html=1;" parent="6_UgSWo_ZpVjv1NP7Cd4-89" vertex="1">
          <mxGeometry y="26" width="360" height="44" as="geometry" />
        </mxCell>
        <mxCell id="6_UgSWo_ZpVjv1NP7Cd4-91" value="" style="line;strokeWidth=1;fillColor=none;align=left;verticalAlign=middle;spacingTop=-1;spacingLeft=3;spacingRight=3;rotatable=0;labelPosition=right;points=[];portConstraint=eastwest;strokeColor=inherit;" parent="6_UgSWo_ZpVjv1NP7Cd4-89" vertex="1">
          <mxGeometry y="70" width="360" height="8" as="geometry" />
        </mxCell>
        <mxCell id="6_UgSWo_ZpVjv1NP7Cd4-92" value="&amp;nbsp; &amp;nbsp;&amp;nbsp;" style="text;strokeColor=none;fillColor=none;align=left;verticalAlign=top;spacingLeft=4;spacingRight=4;overflow=hidden;rotatable=0;points=[[0,0.5],[1,0.5]];portConstraint=eastwest;whiteSpace=wrap;html=1;" parent="6_UgSWo_ZpVjv1NP7Cd4-89" vertex="1">
          <mxGeometry y="78" width="360" height="26" as="geometry" />
        </mxCell>
        <mxCell id="6_UgSWo_ZpVjv1NP7Cd4-118" style="edgeStyle=orthogonalEdgeStyle;rounded=0;orthogonalLoop=1;jettySize=auto;html=1;entryX=0.5;entryY=1;entryDx=0;entryDy=0;endArrow=block;endFill=0;endSize=16;" parent="WIyWlLk6GJQsqaUBKTNV-1" source="6_UgSWo_ZpVjv1NP7Cd4-93" target="6_UgSWo_ZpVjv1NP7Cd4-14" edge="1">
          <mxGeometry relative="1" as="geometry">
            <Array as="points">
              <mxPoint x="1715" y="760" />
              <mxPoint x="1620" y="760" />
              <mxPoint x="1620" y="320" />
              <mxPoint x="1655" y="320" />
            </Array>
          </mxGeometry>
        </mxCell>
        <mxCell id="6_UgSWo_ZpVjv1NP7Cd4-93" value="Cadastro_Info" style="swimlane;fontStyle=1;align=center;verticalAlign=top;childLayout=stackLayout;horizontal=1;startSize=26;horizontalStack=0;resizeParent=1;resizeParentMax=0;resizeLast=0;collapsible=1;marginBottom=0;whiteSpace=wrap;html=1;" parent="WIyWlLk6GJQsqaUBKTNV-1" vertex="1">
          <mxGeometry x="1570" y="970" width="290" height="104" as="geometry" />
        </mxCell>
        <mxCell id="6_UgSWo_ZpVjv1NP7Cd4-94" value="&lt;li&gt;&lt;strong&gt;titulo&lt;/strong&gt;:&amp;nbsp;&lt;code&gt;CharField&lt;/code&gt;&amp;nbsp;(&lt;code&gt;max_length=55&lt;/code&gt;)&lt;/li&gt;&lt;li&gt;&lt;strong&gt;imgInfo&lt;/strong&gt;: &lt;code&gt;ImageField&lt;/code&gt; (&lt;code&gt;upload_to=&quot;imgInfo/&quot;&lt;/code&gt;)&lt;/li&gt;" style="text;strokeColor=none;fillColor=none;align=left;verticalAlign=top;spacingLeft=4;spacingRight=4;overflow=hidden;rotatable=0;points=[[0,0.5],[1,0.5]];portConstraint=eastwest;whiteSpace=wrap;html=1;" parent="6_UgSWo_ZpVjv1NP7Cd4-93" vertex="1">
          <mxGeometry y="26" width="290" height="44" as="geometry" />
        </mxCell>
        <mxCell id="6_UgSWo_ZpVjv1NP7Cd4-95" value="" style="line;strokeWidth=1;fillColor=none;align=left;verticalAlign=middle;spacingTop=-1;spacingLeft=3;spacingRight=3;rotatable=0;labelPosition=right;points=[];portConstraint=eastwest;strokeColor=inherit;" parent="6_UgSWo_ZpVjv1NP7Cd4-93" vertex="1">
          <mxGeometry y="70" width="290" height="8" as="geometry" />
        </mxCell>
        <mxCell id="6_UgSWo_ZpVjv1NP7Cd4-96" value="&amp;nbsp; &amp;nbsp;&amp;nbsp;" style="text;strokeColor=none;fillColor=none;align=left;verticalAlign=top;spacingLeft=4;spacingRight=4;overflow=hidden;rotatable=0;points=[[0,0.5],[1,0.5]];portConstraint=eastwest;whiteSpace=wrap;html=1;" parent="6_UgSWo_ZpVjv1NP7Cd4-93" vertex="1">
          <mxGeometry y="78" width="290" height="26" as="geometry" />
        </mxCell>
        <mxCell id="wMMhzi1j0iWKd_VqLsun-0" value="ErrorLog" style="swimlane;fontStyle=1;align=center;verticalAlign=top;childLayout=stackLayout;horizontal=1;startSize=26;horizontalStack=0;resizeParent=1;resizeParentMax=0;resizeLast=0;collapsible=1;marginBottom=0;whiteSpace=wrap;html=1;" vertex="1" parent="WIyWlLk6GJQsqaUBKTNV-1">
          <mxGeometry x="1080" y="980" width="390" height="104" as="geometry" />
        </mxCell>
        <mxCell id="wMMhzi1j0iWKd_VqLsun-1" value="&lt;li&gt;&lt;b&gt;mensagem: &lt;/b&gt;TextField ()&lt;/li&gt;&lt;li&gt;&lt;strong style=&quot;background-color: initial;&quot;&gt;data_criacao&lt;/strong&gt;&lt;span style=&quot;background-color: initial;&quot;&gt;: &lt;/span&gt;&lt;code style=&quot;background-color: initial;&quot;&gt;DateTimeField&lt;/code&gt;&lt;span style=&quot;background-color: initial;&quot;&gt; (&lt;/span&gt;&lt;code style=&quot;background-color: initial;&quot;&gt;auto_now_add=True&lt;/code&gt;&lt;span style=&quot;background-color: initial;&quot;&gt;)&lt;/span&gt;&lt;/li&gt;" style="text;strokeColor=none;fillColor=none;align=left;verticalAlign=top;spacingLeft=4;spacingRight=4;overflow=hidden;rotatable=0;points=[[0,0.5],[1,0.5]];portConstraint=eastwest;whiteSpace=wrap;html=1;" vertex="1" parent="wMMhzi1j0iWKd_VqLsun-0">
          <mxGeometry y="26" width="390" height="44" as="geometry" />
        </mxCell>
        <mxCell id="wMMhzi1j0iWKd_VqLsun-2" value="" style="line;strokeWidth=1;fillColor=none;align=left;verticalAlign=middle;spacingTop=-1;spacingLeft=3;spacingRight=3;rotatable=0;labelPosition=right;points=[];portConstraint=eastwest;strokeColor=inherit;" vertex="1" parent="wMMhzi1j0iWKd_VqLsun-0">
          <mxGeometry y="70" width="390" height="8" as="geometry" />
        </mxCell>
        <mxCell id="wMMhzi1j0iWKd_VqLsun-3" value="&amp;nbsp; &amp;nbsp;" style="text;strokeColor=none;fillColor=none;align=left;verticalAlign=top;spacingLeft=4;spacingRight=4;overflow=hidden;rotatable=0;points=[[0,0.5],[1,0.5]];portConstraint=eastwest;whiteSpace=wrap;html=1;" vertex="1" parent="wMMhzi1j0iWKd_VqLsun-0">
          <mxGeometry y="78" width="390" height="26" as="geometry" />
        </mxCell>
        <mxCell id="wMMhzi1j0iWKd_VqLsun-4" style="edgeStyle=orthogonalEdgeStyle;rounded=0;orthogonalLoop=1;jettySize=auto;html=1;entryX=0;entryY=0.848;entryDx=0;entryDy=0;entryPerimeter=0;endArrow=block;endFill=0;endSize=16;" edge="1" parent="WIyWlLk6GJQsqaUBKTNV-1" source="wMMhzi1j0iWKd_VqLsun-0" target="6_UgSWo_ZpVjv1NP7Cd4-124">
          <mxGeometry relative="1" as="geometry">
            <Array as="points">
              <mxPoint x="1275" y="628" />
              <mxPoint x="1230" y="628" />
              <mxPoint x="1230" y="240" />
            </Array>
          </mxGeometry>
        </mxCell>
      </root>
    </mxGraphModel>
  </diagram>
</mxfile>
